<svg width="17" height="11" viewBox="0 0 17 11" fill="none" xmlns="http://www.w3.org/2000/svg">
<path d="M14.4563 1.72713C14.4563 0.8993 13.7061 0.221985 12.7891 0.221985H10.2883V1.72713H12.7891V3.72145L9.8882 6.99513H6.95394V3.23227H3.61955C1.7773 3.23227 0.285156 4.57938 0.285156 6.24256V8.50028H1.95235C1.95235 9.74955 3.06937 10.758 4.45314 10.758C5.83692 10.758 6.95394 9.74955 6.95394 8.50028H10.6885L14.4563 4.24825V1.72713ZM4.45314 9.25285C3.99467 9.25285 3.61955 8.91419 3.61955 8.50028H5.28674C5.28674 8.91419 4.91162 9.25285 4.45314 9.25285Z" fill="black"/>
<path d="M6.95389 0.974548H2.78589V2.47968H6.95389V0.974548Z" fill="currentColor"/>
<path d="M14.4564 6.24255C13.0726 6.24255 11.9556 7.251 11.9556 8.50026C11.9556 9.74952 13.0726 10.758 14.4564 10.758C15.8401 10.758 16.9572 9.74952 16.9572 8.50026C16.9572 7.251 15.8401 6.24255 14.4564 6.24255ZM14.4564 9.25283C13.9979 9.25283 13.6228 8.91417 13.6228 8.50026C13.6228 8.08635 13.9979 7.74769 14.4564 7.74769C14.9148 7.74769 15.29 8.08635 15.29 8.50026C15.29 8.91417 14.9148 9.25283 14.4564 9.25283Z" fill="black"/>
</svg>
