<svg width="8" height="8" viewBox="0 0 8 8" fill="none" xmlns="http://www.w3.org/2000/svg">
<path d="M4.18943 1.3125C2.66224 1.3125 1.41272 2.55924 1.41272 4.09476C1.41272 5.48311 2.42899 6.63545 3.75626 6.8437V4.9H3.05098V4.09476H3.75626V3.48111C3.75626 2.78415 4.16999 2.40097 4.80586 2.40097C5.10852 2.40097 5.42506 2.45373 5.42506 2.45373V3.13957H5.0752C4.73088 3.13957 4.62259 3.35338 4.62259 3.57274V4.09476H5.39452L5.26957 4.9H4.62259V6.8437C5.27691 6.74036 5.87272 6.40651 6.30248 5.90241C6.73224 5.39831 6.96762 4.75718 6.96613 4.09476C6.96613 2.55924 5.71661 1.3125 4.18943 1.3125Z" fill="currentColor"/>
</svg>
