<svg width="8" height="8" viewBox="0 0 8 8" fill="none" xmlns="http://www.w3.org/2000/svg">
<g clip-path="url(#clip0_201_20877)">
<path d="M2.58681 0.932617H4.91924C5.80779 0.932617 6.52973 1.65456 6.52973 2.54311V4.87554C6.52973 5.30267 6.36006 5.7123 6.05803 6.01433C5.756 6.31635 5.34637 6.48603 4.91924 6.48603H2.58681C1.69826 6.48603 0.976318 5.76409 0.976318 4.87554V2.54311C0.976318 2.11598 1.14599 1.70634 1.44802 1.40432C1.75005 1.10229 2.15968 0.932617 2.58681 0.932617ZM2.53127 1.48796C2.26616 1.48796 2.0119 1.59327 1.82444 1.78074C1.63698 1.9682 1.53166 2.22246 1.53166 2.48757V4.93107C1.53166 5.48364 1.97871 5.93069 2.53127 5.93069H4.97478C5.23989 5.93069 5.49415 5.82537 5.68161 5.63791C5.86907 5.45044 5.97439 5.19619 5.97439 4.93107V2.48757C5.97439 1.93501 5.52734 1.48796 4.97478 1.48796H2.53127ZM5.2108 1.90446C5.30285 1.90446 5.39113 1.94103 5.45622 2.00612C5.52132 2.07122 5.55788 2.1595 5.55788 2.25155C5.55788 2.34361 5.52132 2.43189 5.45622 2.49698C5.39113 2.56207 5.30285 2.59864 5.2108 2.59864C5.11874 2.59864 5.03046 2.56207 4.96537 2.49698C4.90028 2.43189 4.86371 2.34361 4.86371 2.25155C4.86371 2.1595 4.90028 2.07122 4.96537 2.00612C5.03046 1.94103 5.11874 1.90446 5.2108 1.90446ZM3.75302 2.32097C4.12124 2.32097 4.47437 2.46724 4.73474 2.72761C4.99511 2.98798 5.14138 3.34111 5.14138 3.70932C5.14138 4.07754 4.99511 4.43067 4.73474 4.69104C4.47437 4.9514 4.12124 5.09768 3.75302 5.09768C3.38481 5.09768 3.03168 4.9514 2.77131 4.69104C2.51094 4.43067 2.36467 4.07754 2.36467 3.70932C2.36467 3.34111 2.51094 2.98798 2.77131 2.72761C3.03168 2.46724 3.38481 2.32097 3.75302 2.32097ZM3.75302 2.87631C3.5321 2.87631 3.32022 2.96408 3.164 3.1203C3.00778 3.27652 2.92001 3.4884 2.92001 3.70932C2.92001 3.93025 3.00778 4.14213 3.164 4.29835C3.32022 4.45457 3.5321 4.54234 3.75302 4.54234C3.97395 4.54234 4.18583 4.45457 4.34205 4.29835C4.49827 4.14213 4.58604 3.93025 4.58604 3.70932C4.58604 3.4884 4.49827 3.27652 4.34205 3.1203C4.18583 2.96408 3.97395 2.87631 3.75302 2.87631Z" fill="currentColor"/>
</g>
<defs>
<clipPath id="clip0_201_20877">
<rect width="6.6641" height="6.6641" fill="white" transform="translate(0.421021 0.376953)"/>
</clipPath>
</defs>
</svg>
