<svg width="25" height="31" viewBox="0 0 25 31" fill="none" xmlns="http://www.w3.org/2000/svg">
<path d="M13.6242 0.207054C11.2735 -0.0987544 10.2288 -0.0375926 8.26996 0.207054C6.81688 0.388531 6.41815 1.48489 5.39697 2.47007C0.965037 6.74579 -0.757263 11.0895 0.303957 16.9656C1.39138 22.9867 3.8299 27.8525 10.6206 29.2592C11.8159 29.5069 11.9553 30.8085 13.1671 30.9718C15.0399 31.2241 15.243 28.8296 17.0195 28.2195C22.8961 26.2011 24.6245 20.9071 24.3978 15.1307C24.1679 9.27065 21.6555 5.58935 15.7789 2.47007C14.708 1.90165 14.8433 0.365661 13.6242 0.207054Z" fill="#FFDF00"/>
<path d="M22.6374 20.9768C20.7946 24.5695 17.8707 25.3269 15.7106 25.8663C15.8674 24.2896 17.9107 23.2716 19.7535 19.6789C21.5963 16.0861 20.6728 13.0848 22.2298 11.8855C23.7195 13.6417 24.4802 17.384 22.6374 20.9768Z" fill="#D0B50C"/>
<path d="M3.11435 11.3951C3.31289 15.8629 2.43491 19.5253 2.03858 19.5408C1.64225 19.5562 0.851511 16.5168 0.652978 12.049C0.454444 7.58115 3.58379 4.42162 3.98012 4.40617C4.37646 4.39072 2.91582 6.92728 3.11435 11.3951Z" fill="#F3D503"/>
<path d="M11.2199 12.596C10.7668 16.3214 10.2998 19.3307 9.29661 19.2237C8.29338 19.1166 7.39327 15.9614 7.84636 12.236C8.29945 8.51059 9.93416 5.62582 10.9374 5.73288C11.9406 5.83994 11.673 8.87059 11.2199 12.596Z" fill="#FCEB5F"/>
<ellipse cx="11.3613" cy="1.34556" rx="1.17531" ry="0.4893" fill="#FFF483"/>
<ellipse cx="18.4785" cy="25.9941" rx="0.326475" ry="0.305812" fill="#BDA105"/>
<ellipse cx="19.7844" cy="11.3151" rx="0.326475" ry="0.305812" fill="#BDA105"/>
<ellipse cx="0.325759" cy="0.306575" rx="0.325759" ry="0.306575" transform="matrix(0.984114 0.177537 -0.201393 0.979511 4.95532 17.4925)" fill="#BDA105"/>
<ellipse cx="0.325759" cy="0.306575" rx="0.325759" ry="0.306575" transform="matrix(0.984114 0.177537 -0.201393 0.979511 5.21655 21.8962)" fill="#BDA105"/>
<ellipse cx="11.6878" cy="4.4649" rx="0.326475" ry="0.305812" fill="#BDA105"/>
<ellipse cx="9.72897" cy="22.3243" rx="0.195885" ry="0.183487" fill="#BDA105"/>
<ellipse cx="19.915" cy="20.7341" rx="0.195885" ry="0.183487" fill="#BDA105"/>
<ellipse cx="13.9078" cy="17.676" rx="0.195885" ry="0.183487" fill="#BDA105"/>
<ellipse cx="8.03133" cy="16.6974" rx="0.195885" ry="0.183487" fill="#BDA105"/>
<ellipse cx="9.20653" cy="16.942" rx="0.0652951" ry="0.0611625" fill="#BDA105"/>
<ellipse cx="13.6467" cy="15.7188" rx="0.0652951" ry="0.0611625" fill="#BDA105"/>
<ellipse cx="14.4302" cy="10.5811" rx="0.0652951" ry="0.0611625" fill="#BDA105"/>
<ellipse cx="10.1207" cy="4.83185" rx="0.0652951" ry="0.0611625" fill="#BDA105"/>
<ellipse cx="17.4338" cy="18.0429" rx="0.0652951" ry="0.0611625" fill="#BDA105"/>
<ellipse cx="7.77013" cy="25.6271" rx="0.0652951" ry="0.0611625" fill="#BDA105"/>
<ellipse cx="3.72179" cy="17.7983" rx="0.0652951" ry="0.0611625" fill="#BDA105"/>
<ellipse cx="15.4748" cy="8.50159" rx="0.0652951" ry="0.0611625" fill="#BDA105"/>
<ellipse cx="12.7325" cy="14.3732" rx="0.0652951" ry="0.0611625" fill="#BDA105"/>
<ellipse cx="9.20653" cy="24.8932" rx="0.0652951" ry="0.0611625" fill="#BDA105"/>
<ellipse cx="15.8667" cy="20.8564" rx="0.0652951" ry="0.0611625" fill="#BDA105"/>
<ellipse cx="19.5232" cy="17.9206" rx="0.0652951" ry="0.0611625" fill="#BDA105"/>
<ellipse cx="21.482" cy="14.6178" rx="0.0652951" ry="0.0611625" fill="#BDA105"/>
<ellipse cx="18.7397" cy="7.88997" rx="0.195885" ry="0.183487" fill="#BDA105"/>
<ellipse cx="19.0008" cy="14.6179" rx="0.195885" ry="0.183487" fill="#BDA105"/>
<ellipse cx="16.5196" cy="9.35787" rx="0.195885" ry="0.183487" fill="#BDA105"/>
<ellipse cx="15.9973" cy="5.93279" rx="0.195885" ry="0.183487" fill="#BDA105"/>
<ellipse cx="10.3819" cy="9.60252" rx="0.195885" ry="0.183487" fill="#BDA105"/>
<ellipse cx="6.59481" cy="10.8258" rx="0.195885" ry="0.183487" fill="#BDA105"/>
<ellipse cx="5.41952" cy="14.4955" rx="0.195885" ry="0.183487" fill="#BDA105"/>
</svg>
