<svg width="8" height="7" viewBox="0 0 8 7" fill="none" xmlns="http://www.w3.org/2000/svg">
<g clip-path="url(#clip0_201_25961)">
<path d="M6.6575 1.80144C6.4437 1.89862 6.21323 1.96248 5.97443 1.99303C6.21878 1.84586 6.4076 1.61262 6.49645 1.33217C6.26599 1.47101 6.01053 1.56819 5.74119 1.62373C5.52183 1.38493 5.21362 1.24609 4.86375 1.24609C4.21122 1.24609 3.6781 1.77922 3.6781 2.4373C3.6781 2.53171 3.6892 2.62334 3.70864 2.70942C2.72013 2.65944 1.83992 2.18462 1.25403 1.46545C1.15129 1.64039 1.09298 1.84586 1.09298 2.06245C1.09298 2.47617 1.30124 2.8427 1.62333 3.05095C1.42619 3.05095 1.24293 2.99542 1.08188 2.91212C1.08188 2.91212 1.08188 2.91212 1.08188 2.92045C1.08188 3.498 1.49283 3.98115 2.03706 4.08944C1.9371 4.11721 1.83159 4.13109 1.7233 4.13109C1.64832 4.13109 1.57335 4.12276 1.50116 4.10888C1.6511 4.57814 2.08704 4.92801 2.61184 4.93634C2.20644 5.25843 1.69275 5.44725 1.13186 5.44725C1.03745 5.44725 0.943041 5.4417 0.848633 5.43059C1.37621 5.76935 2.00374 5.9665 2.67571 5.9665C4.86375 5.9665 6.06606 4.15053 6.06606 2.57614C6.06606 2.52338 6.06606 2.4734 6.06329 2.42064C6.29653 2.25404 6.49645 2.04301 6.6575 1.80144Z" fill="currentColor"/>
</g>
<defs>
<clipPath id="clip0_201_25961">
<rect width="6.6641" height="6.6641" fill="white" transform="translate(0.421021 0.135742)"/>
</clipPath>
</defs>
</svg>
